<?xml version="1.0" standalone="no"?>
<!DOCTYPE svg PUBLIC "-//W3C//DTD SVG 1.1//EN" "http://www.w3.org/Graphics/SVG/1.1/DTD/svg11.dtd">
<svg xmlns="http://www.w3.org/2000/svg" xmlns:xlink="http://www.w3.org/1999/xlink" width="750" zoomAndPan="magnify" viewBox="0 0 750 749.999995" height="750" preserveAspectRatio="xMidYMid meet" version="1.0"><defs><g/><clipPath id="7cd2f748fd"><path d="M 142 239 L 355 239 L 355 435.683594 L 142 435.683594 Z M 142 239 " clip-rule="nonzero"/></clipPath><clipPath id="79c26c30f7"><path d="M 203 133.433594 L 224 133.433594 L 224 232 L 203 232 Z M 203 133.433594 " clip-rule="nonzero"/></clipPath></defs><rect x="-75" width="900" fill="#ffffff" y="-74.999999" height="899.999994" fill-opacity="1"/><rect x="-75" width="900" fill="#ffffff" y="-74.999999" height="899.999994" fill-opacity="1"/><g clip-path="url(#7cd2f748fd)"><path fill="#f79611" d="M 155.863281 371.925781 C 155.863281 308.125 207.582031 256.40625 271.382812 256.40625 C 303.910156 256.40625 333.296875 269.851562 354.292969 291.484375 C 333.582031 260.441406 298.242188 239.996094 258.128906 239.996094 C 194.328125 239.996094 142.609375 291.714844 142.609375 355.515625 C 142.609375 386.785156 155.035156 415.15625 175.21875 435.953125 C 162.992188 417.628906 155.863281 395.613281 155.863281 371.925781 " fill-opacity="1" fill-rule="nonzero"/></g><path fill="#fcbb17" d="M 161.632812 372.488281 C 151.304688 312.011719 191.960938 254.609375 252.441406 244.285156 C 283.273438 239.015625 313.308594 247.003906 336.710938 264.113281 C 312.054688 238.039062 275.242188 224.375 237.21875 230.867188 C 176.738281 241.199219 136.082031 298.597656 146.410156 359.078125 C 151.472656 388.722656 167.847656 413.601562 190.347656 430.050781 C 175.789062 414.660156 165.46875 394.941406 161.632812 372.488281 " fill-opacity="1" fill-rule="nonzero"/><path fill="#f79611" d="M 320.894531 246.308594 C 320.839844 229.871094 326.878906 215.566406 331.351562 207.78125 C 336.179688 199.371094 350.257812 181.054688 356.964844 190.175781 C 363.335938 198.835938 326.933594 231.609375 320.894531 246.308594 " fill-opacity="1" fill-rule="nonzero"/><path fill="#f79611" d="M 270.179688 229.265625 C 268.34375 213.265625 269.621094 196.574219 276.144531 181.292969 C 277.875 177.234375 291.460938 147.765625 302.253906 154.207031 C 311.902344 159.964844 292.800781 186.4375 288.855469 192.730469 C 283.410156 201.414062 274.539062 214.828125 270.179688 229.265625 " fill-opacity="1" fill-rule="nonzero"/><path fill="#f79611" d="M 180.027344 254.304688 C 158.230469 243.445312 138.1875 228.453125 121.832031 210.570312 C 117.09375 205.390625 95.347656 176.882812 105.339844 171.265625 C 115.667969 165.460938 139.617188 198.148438 144.011719 204.179688 C 150.636719 213.265625 167.070312 239.027344 180.027344 254.304688 " fill-opacity="1" fill-rule="nonzero"/><path fill="#f79611" d="M 140.019531 299.289062 C 130.140625 290.15625 110.308594 282.734375 94.707031 277.953125 C 89.113281 276.238281 51.273438 265.859375 53.855469 255.925781 C 59.152344 235.550781 129.214844 268.378906 140.019531 299.289062 " fill-opacity="1" fill-rule="nonzero"/><path fill="#f79611" d="M 129.214844 343.328125 C 102.996094 337.976562 30.636719 348.511719 35.90625 331.761719 C 38.765625 322.667969 52.023438 321.085938 60.832031 320.769531 C 69.167969 320.46875 103.15625 325.824219 129.214844 343.328125 " fill-opacity="1" fill-rule="nonzero"/><path fill="#f79611" d="M 137.707031 401.648438 C 111.464844 395.367188 55.132812 413.617188 57.160156 398.742188 C 59.914062 378.53125 119.671875 388.421875 137.707031 401.648438 " fill-opacity="1" fill-rule="nonzero"/><g clip-path="url(#79c26c30f7)"><path fill="#f79611" d="M 217.152344 231.699219 C 209.363281 217.058594 206.722656 202.648438 204.730469 187.269531 C 203.332031 176.5 202.832031 165.707031 204.625 154.835938 C 205.628906 148.753906 209.835938 133.433594 217.019531 133.441406 C 229.265625 133.457031 220.484375 176.253906 219.457031 184.273438 C 218.265625 193.550781 215.359375 210.304688 217.152344 231.699219 " fill-opacity="1" fill-rule="nonzero"/></g><g fill="#000000" fill-opacity="1"><g transform="translate(203.796966, 415.443295)"><g><path d="M 52.4375 1.5 C 47.21875 1.5 42.109375 1.050781 37.109375 0.15625 C 32.117188 -0.726562 27.488281 -2 23.21875 -3.65625 C 18.945312 -5.320312 15.09375 -7.429688 11.65625 -9.984375 C 10.320312 -10.984375 9.40625 -12.117188 8.90625 -13.390625 C 8.40625 -14.671875 8.289062 -15.945312 8.5625 -17.21875 C 8.84375 -18.5 9.398438 -19.582031 10.234375 -20.46875 C 11.066406 -21.363281 12.09375 -21.863281 13.3125 -21.96875 C 14.53125 -22.082031 15.863281 -21.695312 17.3125 -20.8125 C 22.300781 -17.257812 27.625 -14.675781 33.28125 -13.0625 C 38.945312 -11.457031 45.332031 -10.65625 52.4375 -10.65625 C 62.414062 -10.65625 69.816406 -12.515625 74.640625 -16.234375 C 79.472656 -19.953125 81.890625 -24.859375 81.890625 -30.953125 C 81.890625 -35.953125 80.140625 -39.863281 76.640625 -42.6875 C 73.148438 -45.519531 67.300781 -47.769531 59.09375 -49.4375 L 41.78125 -52.9375 C 31.351562 -55.15625 23.554688 -58.785156 18.390625 -63.828125 C 13.234375 -68.878906 10.65625 -75.625 10.65625 -84.0625 C 10.65625 -89.269531 11.707031 -94.007812 13.8125 -98.28125 C 15.925781 -102.5625 18.867188 -106.226562 22.640625 -109.28125 C 26.410156 -112.332031 30.898438 -114.6875 36.109375 -116.34375 C 41.328125 -118.007812 47.101562 -118.84375 53.4375 -118.84375 C 60.425781 -118.84375 66.941406 -117.867188 72.984375 -115.921875 C 79.035156 -113.984375 84.503906 -111.078125 89.390625 -107.203125 C 90.609375 -106.203125 91.4375 -105.0625 91.875 -103.78125 C 92.320312 -102.507812 92.378906 -101.289062 92.046875 -100.125 C 91.710938 -98.957031 91.128906 -97.984375 90.296875 -97.203125 C 89.460938 -96.429688 88.40625 -95.988281 87.125 -95.875 C 85.851562 -95.757812 84.441406 -96.203125 82.890625 -97.203125 C 78.453125 -100.535156 73.847656 -102.953125 69.078125 -104.453125 C 64.304688 -105.953125 59.035156 -106.703125 53.265625 -106.703125 C 47.378906 -106.703125 42.300781 -105.8125 38.03125 -104.03125 C 33.757812 -102.257812 30.429688 -99.679688 28.046875 -96.296875 C 25.660156 -92.910156 24.46875 -89 24.46875 -84.5625 C 24.46875 -79.226562 26.101562 -75.007812 29.375 -71.90625 C 32.65625 -68.800781 38.007812 -66.523438 45.4375 -65.078125 L 62.75 -61.421875 C 73.957031 -59.085938 82.25 -55.5625 87.625 -50.84375 C 93.007812 -46.132812 95.703125 -39.726562 95.703125 -31.625 C 95.703125 -26.738281 94.703125 -22.242188 92.703125 -18.140625 C 90.710938 -14.035156 87.832031 -10.507812 84.0625 -7.5625 C 80.289062 -4.625 75.738281 -2.378906 70.40625 -0.828125 C 65.082031 0.722656 59.09375 1.5 52.4375 1.5 Z M 52.4375 1.5 "/></g></g></g><g fill="#000000" fill-opacity="1"><g transform="translate(306.169416, 415.443295)"><g><path d="M 42.78125 1.171875 C 40.894531 1.171875 39.226562 0.644531 37.78125 -0.40625 C 36.34375 -1.46875 35.125 -3.109375 34.125 -5.328125 L 5.328125 -72.578125 C 4.546875 -74.242188 4.265625 -75.796875 4.484375 -77.234375 C 4.710938 -78.671875 5.378906 -79.832031 6.484375 -80.71875 C 7.597656 -81.613281 9.15625 -82.0625 11.15625 -82.0625 C 12.925781 -82.0625 14.3125 -81.671875 15.3125 -80.890625 C 16.3125 -80.117188 17.203125 -78.734375 17.984375 -76.734375 L 45.28125 -9.984375 L 40.78125 -9.984375 L 68.578125 -76.734375 C 69.359375 -78.734375 70.242188 -80.117188 71.234375 -80.890625 C 72.234375 -81.671875 73.675781 -82.0625 75.5625 -82.0625 C 77.34375 -82.0625 78.703125 -81.613281 79.640625 -80.71875 C 80.585938 -79.832031 81.144531 -78.695312 81.3125 -77.3125 C 81.476562 -75.925781 81.226562 -74.398438 80.5625 -72.734375 L 51.4375 -5.328125 C 50.65625 -3.109375 49.515625 -1.46875 48.015625 -0.40625 C 46.523438 0.644531 44.78125 1.171875 42.78125 1.171875 Z M 42.78125 1.171875 "/></g></g></g><g fill="#000000" fill-opacity="1"><g transform="translate(391.895948, 415.443295)"><g><path d="M 19.3125 0.828125 C 17.09375 0.828125 15.425781 0.191406 14.3125 -1.078125 C 13.207031 -2.359375 12.65625 -4.160156 12.65625 -6.484375 L 12.65625 -74.578125 C 12.65625 -76.898438 13.207031 -78.671875 14.3125 -79.890625 C 15.425781 -81.117188 17.09375 -81.734375 19.3125 -81.734375 C 21.414062 -81.734375 23.078125 -81.117188 24.296875 -79.890625 C 25.523438 -78.671875 26.140625 -76.898438 26.140625 -74.578125 L 26.140625 -6.484375 C 26.140625 -4.160156 25.554688 -2.359375 24.390625 -1.078125 C 23.222656 0.191406 21.53125 0.828125 19.3125 0.828125 Z M 24.8125 -92.546875 C 24.03125 -91.441406 23.082031 -90.804688 21.96875 -90.640625 C 20.863281 -90.472656 19.8125 -90.632812 18.8125 -91.125 C 17.8125 -91.625 17.085938 -92.375 16.640625 -93.375 C 16.203125 -94.375 16.316406 -95.539062 16.984375 -96.875 L 30.96875 -124 C 31.738281 -125.5625 32.734375 -126.5625 33.953125 -127 C 35.179688 -127.445312 36.429688 -127.53125 37.703125 -127.25 C 38.984375 -126.976562 40.066406 -126.394531 40.953125 -125.5 C 41.835938 -124.613281 42.363281 -123.5625 42.53125 -122.34375 C 42.695312 -121.125 42.335938 -119.847656 41.453125 -118.515625 Z M 24.8125 -92.546875 "/></g></g></g><g fill="#000000" fill-opacity="1"><g transform="translate(430.514507, 415.443295)"><g><path d="M 45.109375 1.5 C 38.785156 1.5 33.484375 0.363281 29.203125 -1.90625 C 24.929688 -4.1875 21.742188 -7.515625 19.640625 -11.890625 C 17.535156 -16.273438 16.484375 -21.632812 16.484375 -27.96875 L 16.484375 -70.40625 L 5.328125 -70.40625 C 3.441406 -70.40625 2 -70.875 1 -71.8125 C 0 -72.757812 -0.5 -74.066406 -0.5 -75.734375 C -0.5 -77.398438 0 -78.675781 1 -79.5625 C 2 -80.445312 3.441406 -80.890625 5.328125 -80.890625 L 16.484375 -80.890625 L 16.484375 -100.03125 C 16.484375 -102.257812 17.09375 -103.953125 18.3125 -105.109375 C 19.53125 -106.273438 21.191406 -106.859375 23.296875 -106.859375 C 25.410156 -106.859375 27.050781 -106.273438 28.21875 -105.109375 C 29.382812 -103.953125 29.96875 -102.257812 29.96875 -100.03125 L 29.96875 -80.890625 L 50.9375 -80.890625 C 52.820312 -80.890625 54.265625 -80.445312 55.265625 -79.5625 C 56.265625 -78.675781 56.765625 -77.398438 56.765625 -75.734375 C 56.765625 -74.066406 56.265625 -72.757812 55.265625 -71.8125 C 54.265625 -70.875 52.820312 -70.40625 50.9375 -70.40625 L 29.96875 -70.40625 L 29.96875 -29.296875 C 29.96875 -22.972656 31.296875 -18.171875 33.953125 -14.890625 C 36.617188 -11.617188 40.945312 -9.984375 46.9375 -9.984375 C 49.050781 -9.984375 50.851562 -10.203125 52.34375 -10.640625 C 53.84375 -11.085938 55.09375 -11.3125 56.09375 -11.3125 C 57.09375 -11.425781 57.925781 -11.09375 58.59375 -10.3125 C 59.257812 -9.539062 59.59375 -8.210938 59.59375 -6.328125 C 59.59375 -4.992188 59.34375 -3.769531 58.84375 -2.65625 C 58.34375 -1.550781 57.484375 -0.773438 56.265625 -0.328125 C 54.929688 0.109375 53.179688 0.519531 51.015625 0.90625 C 48.847656 1.300781 46.878906 1.5 45.109375 1.5 Z M 45.109375 1.5 "/></g></g></g><g fill="#000000" fill-opacity="1"><g transform="translate(488.775257, 415.443295)"><g><path d="M 38.125 1.5 C 32.570312 1.5 27.601562 0.414062 23.21875 -1.75 C 18.832031 -3.914062 15.363281 -6.882812 12.8125 -10.65625 C 10.257812 -14.425781 8.984375 -18.640625 8.984375 -23.296875 C 8.984375 -29.296875 10.507812 -34.015625 13.5625 -37.453125 C 16.613281 -40.890625 21.660156 -43.328125 28.703125 -44.765625 C 35.753906 -46.210938 45.382812 -46.9375 57.59375 -46.9375 L 65.078125 -46.9375 L 65.078125 -38.125 L 57.765625 -38.125 C 48.773438 -38.125 41.695312 -37.707031 36.53125 -36.875 C 31.375 -36.039062 27.769531 -34.625 25.71875 -32.625 C 23.664062 -30.625 22.640625 -27.796875 22.640625 -24.140625 C 22.640625 -19.585938 24.21875 -15.867188 27.375 -12.984375 C 30.539062 -10.097656 34.84375 -8.65625 40.28125 -8.65625 C 44.71875 -8.65625 48.628906 -9.707031 52.015625 -11.8125 C 55.398438 -13.925781 58.0625 -16.8125 60 -20.46875 C 61.945312 -24.132812 62.921875 -28.351562 62.921875 -33.125 L 62.921875 -52.09375 C 62.921875 -58.976562 61.53125 -63.945312 58.75 -67 C 55.976562 -70.050781 51.429688 -71.578125 45.109375 -71.578125 C 41.222656 -71.578125 37.335938 -71.078125 33.453125 -70.078125 C 29.566406 -69.078125 25.460938 -67.46875 21.140625 -65.25 C 19.585938 -64.46875 18.253906 -64.21875 17.140625 -64.5 C 16.035156 -64.78125 15.148438 -65.363281 14.484375 -66.25 C 13.816406 -67.132812 13.425781 -68.160156 13.3125 -69.328125 C 13.207031 -70.492188 13.457031 -71.628906 14.0625 -72.734375 C 14.675781 -73.847656 15.648438 -74.738281 16.984375 -75.40625 C 21.859375 -77.84375 26.679688 -79.613281 31.453125 -80.71875 C 36.222656 -81.832031 40.773438 -82.390625 45.109375 -82.390625 C 52.097656 -82.390625 57.867188 -81.25 62.421875 -78.96875 C 66.972656 -76.695312 70.359375 -73.257812 72.578125 -68.65625 C 74.796875 -64.050781 75.90625 -58.144531 75.90625 -50.9375 L 75.90625 -5.828125 C 75.90625 -3.609375 75.375 -1.882812 74.3125 -0.65625 C 73.257812 0.5625 71.738281 1.171875 69.75 1.171875 C 67.632812 1.171875 66.019531 0.5625 64.90625 -0.65625 C 63.800781 -1.882812 63.25 -3.609375 63.25 -5.828125 L 63.25 -18.8125 L 64.75 -18.8125 C 63.863281 -14.59375 62.171875 -10.984375 59.671875 -7.984375 C 57.171875 -4.992188 54.085938 -2.664062 50.421875 -1 C 46.765625 0.664062 42.664062 1.5 38.125 1.5 Z M 50.78125 -92.546875 C 50 -91.441406 49.050781 -90.804688 47.9375 -90.640625 C 46.832031 -90.472656 45.78125 -90.632812 44.78125 -91.125 C 43.78125 -91.625 43.054688 -92.375 42.609375 -93.375 C 42.171875 -94.375 42.285156 -95.539062 42.953125 -96.875 L 56.9375 -124 C 57.707031 -125.5625 58.703125 -126.5625 59.921875 -127 C 61.148438 -127.445312 62.398438 -127.53125 63.671875 -127.25 C 64.953125 -126.976562 66.035156 -126.394531 66.921875 -125.5 C 67.804688 -124.613281 68.332031 -123.5625 68.5 -122.34375 C 68.664062 -121.125 68.304688 -119.847656 67.421875 -118.515625 Z M 50.78125 -92.546875 "/></g></g></g><g fill="#000000" fill-opacity="1"><g transform="translate(576.998681, 415.443295)"><g><path d="M 19.3125 1.171875 C 17.09375 1.171875 15.425781 0.5625 14.3125 -0.65625 C 13.207031 -1.882812 12.65625 -3.609375 12.65625 -5.828125 L 12.65625 -75.234375 C 12.65625 -77.453125 13.207031 -79.144531 14.3125 -80.3125 C 15.425781 -81.476562 17.035156 -82.0625 19.140625 -82.0625 C 21.253906 -82.0625 22.890625 -81.476562 24.046875 -80.3125 C 25.210938 -79.144531 25.796875 -77.453125 25.796875 -75.234375 L 25.796875 -60.921875 L 23.96875 -62.921875 C 26.300781 -69.359375 30.101562 -74.210938 35.375 -77.484375 C 40.644531 -80.753906 46.71875 -82.390625 53.59375 -82.390625 C 60.03125 -82.390625 65.382812 -81.222656 69.65625 -78.890625 C 73.925781 -76.566406 77.113281 -73.046875 79.21875 -68.328125 C 81.332031 -63.609375 82.390625 -57.644531 82.390625 -50.4375 L 82.390625 -5.828125 C 82.390625 -3.609375 81.804688 -1.882812 80.640625 -0.65625 C 79.484375 0.5625 77.847656 1.171875 75.734375 1.171875 C 73.515625 1.171875 71.820312 0.5625 70.65625 -0.65625 C 69.488281 -1.882812 68.90625 -3.609375 68.90625 -5.828125 L 68.90625 -49.609375 C 68.90625 -57.148438 67.4375 -62.664062 64.5 -66.15625 C 61.5625 -69.65625 56.875 -71.40625 50.4375 -71.40625 C 43 -71.40625 37.085938 -69.101562 32.703125 -64.5 C 28.328125 -59.894531 26.140625 -53.765625 26.140625 -46.109375 L 26.140625 -5.828125 C 26.140625 -1.160156 23.863281 1.171875 19.3125 1.171875 Z M 19.3125 1.171875 "/></g></g></g><g fill="#000000" fill-opacity="1"><g transform="translate(671.547568, 415.443295)"><g><path d="M 19.3125 0.828125 C 17.09375 0.828125 15.425781 0.191406 14.3125 -1.078125 C 13.207031 -2.359375 12.65625 -4.160156 12.65625 -6.484375 L 12.65625 -74.578125 C 12.65625 -76.898438 13.207031 -78.671875 14.3125 -79.890625 C 15.425781 -81.117188 17.09375 -81.734375 19.3125 -81.734375 C 21.414062 -81.734375 23.078125 -81.117188 24.296875 -79.890625 C 25.523438 -78.671875 26.140625 -76.898438 26.140625 -74.578125 L 26.140625 -6.484375 C 26.140625 -4.160156 25.554688 -2.359375 24.390625 -1.078125 C 23.222656 0.191406 21.53125 0.828125 19.3125 0.828125 Z M 24.8125 -92.546875 C 24.03125 -91.441406 23.082031 -90.804688 21.96875 -90.640625 C 20.863281 -90.472656 19.8125 -90.632812 18.8125 -91.125 C 17.8125 -91.625 17.085938 -92.375 16.640625 -93.375 C 16.203125 -94.375 16.316406 -95.539062 16.984375 -96.875 L 30.96875 -124 C 31.738281 -125.5625 32.734375 -126.5625 33.953125 -127 C 35.179688 -127.445312 36.429688 -127.53125 37.703125 -127.25 C 38.984375 -126.976562 40.066406 -126.394531 40.953125 -125.5 C 41.835938 -124.613281 42.363281 -123.5625 42.53125 -122.34375 C 42.695312 -121.125 42.335938 -119.847656 41.453125 -118.515625 Z M 24.8125 -92.546875 "/></g></g></g><g fill="#000000" fill-opacity="1"><g transform="translate(229.18992, 473.785694)"><g><path d="M 4.828125 0.265625 C 4.328125 0.265625 3.941406 0.117188 3.671875 -0.171875 C 3.410156 -0.460938 3.28125 -0.859375 3.28125 -1.359375 L 3.28125 -25.015625 C 3.28125 -25.546875 3.414062 -25.941406 3.6875 -26.203125 C 3.96875 -26.472656 4.363281 -26.609375 4.875 -26.609375 L 13.8125 -26.609375 C 16.65625 -26.609375 18.84375 -25.941406 20.375 -24.609375 C 21.90625 -23.273438 22.671875 -21.375 22.671875 -18.90625 C 22.671875 -17.34375 22.328125 -15.988281 21.640625 -14.84375 C 20.953125 -13.695312 19.941406 -12.828125 18.609375 -12.234375 C 17.273438 -11.648438 15.675781 -11.359375 13.8125 -11.359375 L 14.1875 -11.84375 L 14.9375 -11.84375 C 15.925781 -11.84375 16.785156 -11.59375 17.515625 -11.09375 C 18.242188 -10.59375 18.910156 -9.785156 19.515625 -8.671875 L 23.125 -1.921875 C 23.332031 -1.566406 23.425781 -1.21875 23.40625 -0.875 C 23.394531 -0.539062 23.273438 -0.265625 23.046875 -0.046875 C 22.828125 0.160156 22.503906 0.265625 22.078125 0.265625 C 21.648438 0.265625 21.296875 0.164062 21.015625 -0.03125 C 20.742188 -0.238281 20.503906 -0.53125 20.296875 -0.90625 L 16.1875 -8.53125 C 15.601562 -9.613281 14.9375 -10.335938 14.1875 -10.703125 C 13.4375 -11.066406 12.441406 -11.25 11.203125 -11.25 L 6.375 -11.25 L 6.375 -1.359375 C 6.375 -0.859375 6.25 -0.460938 6 -0.171875 C 5.75 0.117188 5.359375 0.265625 4.828125 0.265625 Z M 6.375 -13.703125 L 13.359375 -13.703125 C 15.421875 -13.703125 16.976562 -14.132812 18.03125 -15 C 19.09375 -15.863281 19.625 -17.164062 19.625 -18.90625 C 19.625 -20.59375 19.09375 -21.867188 18.03125 -22.734375 C 16.976562 -23.597656 15.421875 -24.03125 13.359375 -24.03125 L 6.375 -24.03125 Z M 6.375 -13.703125 "/></g></g></g><g fill="#000000" fill-opacity="1"><g transform="translate(254.426064, 473.785694)"><g><path d="M 10.484375 0.34375 C 8.703125 0.34375 7.15625 -0.046875 5.84375 -0.828125 C 4.539062 -1.609375 3.53125 -2.707031 2.8125 -4.125 C 2.09375 -5.550781 1.734375 -7.234375 1.734375 -9.171875 C 1.734375 -10.628906 1.929688 -11.941406 2.328125 -13.109375 C 2.734375 -14.285156 3.328125 -15.285156 4.109375 -16.109375 C 4.890625 -16.941406 5.8125 -17.578125 6.875 -18.015625 C 7.945312 -18.453125 9.148438 -18.671875 10.484375 -18.671875 C 12.273438 -18.671875 13.820312 -18.28125 15.125 -17.5 C 16.4375 -16.726562 17.453125 -15.628906 18.171875 -14.203125 C 18.890625 -12.785156 19.25 -11.109375 19.25 -9.171875 C 19.25 -7.710938 19.046875 -6.40625 18.640625 -5.25 C 18.234375 -4.09375 17.640625 -3.09375 16.859375 -2.25 C 16.085938 -1.40625 15.164062 -0.757812 14.09375 -0.3125 C 13.019531 0.125 11.816406 0.34375 10.484375 0.34375 Z M 10.484375 -2.109375 C 11.617188 -2.109375 12.613281 -2.382812 13.46875 -2.9375 C 14.320312 -3.488281 14.984375 -4.289062 15.453125 -5.34375 C 15.921875 -6.40625 16.15625 -7.679688 16.15625 -9.171875 C 16.15625 -11.460938 15.644531 -13.207031 14.625 -14.40625 C 13.601562 -15.613281 12.222656 -16.21875 10.484375 -16.21875 C 9.328125 -16.21875 8.328125 -15.945312 7.484375 -15.40625 C 6.640625 -14.875 5.984375 -14.082031 5.515625 -13.03125 C 5.054688 -11.988281 4.828125 -10.703125 4.828125 -9.171875 C 4.828125 -6.898438 5.34375 -5.15625 6.375 -3.9375 C 7.40625 -2.71875 8.773438 -2.109375 10.484375 -2.109375 Z M 10.484375 -2.109375 "/></g></g></g><g fill="#000000" fill-opacity="1"><g transform="translate(275.399607, 473.785694)"><g><path d="M 9.84375 0.34375 C 8.207031 0.34375 6.78125 -0.046875 5.5625 -0.828125 C 4.34375 -1.609375 3.398438 -2.707031 2.734375 -4.125 C 2.066406 -5.550781 1.734375 -7.234375 1.734375 -9.171875 C 1.734375 -11.128906 2.066406 -12.816406 2.734375 -14.234375 C 3.398438 -15.660156 4.34375 -16.753906 5.5625 -17.515625 C 6.78125 -18.285156 8.207031 -18.671875 9.84375 -18.671875 C 11.507812 -18.671875 12.929688 -18.253906 14.109375 -17.421875 C 15.296875 -16.597656 16.085938 -15.484375 16.484375 -14.078125 L 16.078125 -14.078125 L 16.078125 -25.3125 C 16.078125 -25.820312 16.207031 -26.207031 16.46875 -26.46875 C 16.738281 -26.726562 17.125 -26.859375 17.625 -26.859375 C 18.101562 -26.859375 18.472656 -26.726562 18.734375 -26.46875 C 18.992188 -26.207031 19.125 -25.820312 19.125 -25.3125 L 19.125 -1.328125 C 19.125 -0.816406 19 -0.421875 18.75 -0.140625 C 18.5 0.128906 18.125 0.265625 17.625 0.265625 C 17.144531 0.265625 16.769531 0.128906 16.5 -0.140625 C 16.238281 -0.421875 16.109375 -0.816406 16.109375 -1.328125 L 16.109375 -4.90625 L 16.53125 -4.375 C 16.125 -2.9375 15.320312 -1.789062 14.125 -0.9375 C 12.9375 -0.0820312 11.507812 0.34375 9.84375 0.34375 Z M 10.484375 -2.109375 C 11.617188 -2.109375 12.613281 -2.382812 13.46875 -2.9375 C 14.320312 -3.488281 14.984375 -4.289062 15.453125 -5.34375 C 15.921875 -6.40625 16.15625 -7.679688 16.15625 -9.171875 C 16.15625 -11.460938 15.644531 -13.207031 14.625 -14.40625 C 13.601562 -15.613281 12.222656 -16.21875 10.484375 -16.21875 C 9.328125 -16.21875 8.328125 -15.945312 7.484375 -15.40625 C 6.640625 -14.875 5.984375 -14.082031 5.515625 -13.03125 C 5.054688 -11.988281 4.828125 -10.703125 4.828125 -9.171875 C 4.828125 -6.898438 5.34375 -5.15625 6.375 -3.9375 C 7.40625 -2.71875 8.773438 -2.109375 10.484375 -2.109375 Z M 10.484375 -2.109375 "/></g></g></g><g fill="#000000" fill-opacity="1"><g transform="translate(297.391646, 473.785694)"><g><path d="M 4.375 0.1875 C 3.875 0.1875 3.5 0.046875 3.25 -0.234375 C 3 -0.523438 2.875 -0.9375 2.875 -1.46875 L 2.875 -16.90625 C 2.875 -17.4375 3 -17.835938 3.25 -18.109375 C 3.5 -18.390625 3.875 -18.53125 4.375 -18.53125 C 4.851562 -18.53125 5.226562 -18.390625 5.5 -18.109375 C 5.78125 -17.835938 5.921875 -17.4375 5.921875 -16.90625 L 5.921875 -1.46875 C 5.921875 -0.9375 5.785156 -0.523438 5.515625 -0.234375 C 5.253906 0.046875 4.875 0.1875 4.375 0.1875 Z M 4.375 -22.75 C 3.75 -22.75 3.257812 -22.914062 2.90625 -23.25 C 2.550781 -23.59375 2.375 -24.054688 2.375 -24.640625 C 2.375 -25.242188 2.550781 -25.703125 2.90625 -26.015625 C 3.257812 -26.328125 3.75 -26.484375 4.375 -26.484375 C 5.03125 -26.484375 5.523438 -26.328125 5.859375 -26.015625 C 6.203125 -25.703125 6.375 -25.242188 6.375 -24.640625 C 6.375 -24.054688 6.203125 -23.59375 5.859375 -23.25 C 5.523438 -22.914062 5.03125 -22.75 4.375 -22.75 Z M 4.375 -22.75 "/></g></g></g><g fill="#000000" fill-opacity="1"><g transform="translate(306.143199, 473.785694)"><g><path d="M 4.375 0.265625 C 3.875 0.265625 3.5 0.128906 3.25 -0.140625 C 3 -0.421875 2.875 -0.816406 2.875 -1.328125 L 2.875 -17.0625 C 2.875 -17.5625 3 -17.941406 3.25 -18.203125 C 3.5 -18.472656 3.863281 -18.609375 4.34375 -18.609375 C 4.820312 -18.609375 5.191406 -18.472656 5.453125 -18.203125 C 5.710938 -17.941406 5.84375 -17.5625 5.84375 -17.0625 L 5.84375 -13.8125 L 5.4375 -14.265625 C 5.957031 -15.722656 6.816406 -16.820312 8.015625 -17.5625 C 9.210938 -18.300781 10.59375 -18.671875 12.15625 -18.671875 C 13.613281 -18.671875 14.828125 -18.40625 15.796875 -17.875 C 16.765625 -17.351562 17.484375 -16.554688 17.953125 -15.484375 C 18.429688 -14.421875 18.671875 -13.070312 18.671875 -11.4375 L 18.671875 -1.328125 C 18.671875 -0.816406 18.539062 -0.421875 18.28125 -0.140625 C 18.019531 0.128906 17.648438 0.265625 17.171875 0.265625 C 16.671875 0.265625 16.285156 0.128906 16.015625 -0.140625 C 15.753906 -0.421875 15.625 -0.816406 15.625 -1.328125 L 15.625 -11.25 C 15.625 -12.957031 15.289062 -14.207031 14.625 -15 C 13.957031 -15.789062 12.894531 -16.1875 11.4375 -16.1875 C 9.75 -16.1875 8.40625 -15.664062 7.40625 -14.625 C 6.414062 -13.582031 5.921875 -12.191406 5.921875 -10.453125 L 5.921875 -1.328125 C 5.921875 -0.265625 5.40625 0.265625 4.375 0.265625 Z M 4.375 0.265625 "/></g></g></g><g fill="#000000" fill-opacity="1"><g transform="translate(327.569408, 473.785694)"><g><path d="M 4.375 0.265625 C 3.875 0.265625 3.5 0.128906 3.25 -0.140625 C 3 -0.421875 2.875 -0.816406 2.875 -1.328125 L 2.875 -17.0625 C 2.875 -17.5625 3 -17.941406 3.25 -18.203125 C 3.5 -18.472656 3.863281 -18.609375 4.34375 -18.609375 C 4.820312 -18.609375 5.191406 -18.472656 5.453125 -18.203125 C 5.710938 -17.941406 5.84375 -17.5625 5.84375 -17.0625 L 5.84375 -13.8125 L 5.4375 -14.265625 C 5.957031 -15.722656 6.816406 -16.820312 8.015625 -17.5625 C 9.210938 -18.300781 10.59375 -18.671875 12.15625 -18.671875 C 13.613281 -18.671875 14.828125 -18.40625 15.796875 -17.875 C 16.765625 -17.351562 17.484375 -16.554688 17.953125 -15.484375 C 18.429688 -14.421875 18.671875 -13.070312 18.671875 -11.4375 L 18.671875 -1.328125 C 18.671875 -0.816406 18.539062 -0.421875 18.28125 -0.140625 C 18.019531 0.128906 17.648438 0.265625 17.171875 0.265625 C 16.671875 0.265625 16.285156 0.128906 16.015625 -0.140625 C 15.753906 -0.421875 15.625 -0.816406 15.625 -1.328125 L 15.625 -11.25 C 15.625 -12.957031 15.289062 -14.207031 14.625 -15 C 13.957031 -15.789062 12.894531 -16.1875 11.4375 -16.1875 C 9.75 -16.1875 8.40625 -15.664062 7.40625 -14.625 C 6.414062 -13.582031 5.921875 -12.191406 5.921875 -10.453125 L 5.921875 -1.328125 C 5.921875 -0.265625 5.40625 0.265625 4.375 0.265625 Z M 4.375 0.265625 "/></g></g></g><g fill="#000000" fill-opacity="1"><g transform="translate(348.995616, 473.785694)"><g><path d="M 11.125 0.34375 C 9.1875 0.34375 7.519531 -0.0390625 6.125 -0.8125 C 4.726562 -1.582031 3.644531 -2.671875 2.875 -4.078125 C 2.113281 -5.484375 1.734375 -7.164062 1.734375 -9.125 C 1.734375 -11.039062 2.109375 -12.707031 2.859375 -14.125 C 3.617188 -15.550781 4.660156 -16.664062 5.984375 -17.46875 C 7.304688 -18.269531 8.832031 -18.671875 10.5625 -18.671875 C 11.800781 -18.671875 12.910156 -18.460938 13.890625 -18.046875 C 14.867188 -17.640625 15.703125 -17.046875 16.390625 -16.265625 C 17.085938 -15.484375 17.617188 -14.535156 17.984375 -13.421875 C 18.347656 -12.316406 18.53125 -11.078125 18.53125 -9.703125 C 18.53125 -9.296875 18.414062 -9 18.1875 -8.8125 C 17.957031 -8.625 17.628906 -8.53125 17.203125 -8.53125 L 4.078125 -8.53125 L 4.078125 -10.53125 L 16.484375 -10.53125 L 15.890625 -10.03125 C 15.890625 -11.394531 15.6875 -12.546875 15.28125 -13.484375 C 14.875 -14.429688 14.285156 -15.15625 13.515625 -15.65625 C 12.753906 -16.164062 11.796875 -16.421875 10.640625 -16.421875 C 9.359375 -16.421875 8.269531 -16.125 7.375 -15.53125 C 6.476562 -14.9375 5.800781 -14.117188 5.34375 -13.078125 C 4.894531 -12.035156 4.671875 -10.820312 4.671875 -9.4375 L 4.671875 -9.203125 C 4.671875 -6.890625 5.226562 -5.128906 6.34375 -3.921875 C 7.46875 -2.710938 9.0625 -2.109375 11.125 -2.109375 C 11.988281 -2.109375 12.835938 -2.222656 13.671875 -2.453125 C 14.515625 -2.679688 15.34375 -3.054688 16.15625 -3.578125 C 16.5 -3.804688 16.816406 -3.914062 17.109375 -3.90625 C 17.398438 -3.894531 17.632812 -3.804688 17.8125 -3.640625 C 17.988281 -3.472656 18.109375 -3.269531 18.171875 -3.03125 C 18.234375 -2.789062 18.207031 -2.53125 18.09375 -2.25 C 17.976562 -1.976562 17.757812 -1.742188 17.4375 -1.546875 C 16.601562 -0.941406 15.617188 -0.472656 14.484375 -0.140625 C 13.359375 0.179688 12.238281 0.34375 11.125 0.34375 Z M 11.8125 -20.984375 C 11.632812 -20.734375 11.414062 -20.585938 11.15625 -20.546875 C 10.90625 -20.503906 10.664062 -20.539062 10.4375 -20.65625 C 10.21875 -20.769531 10.054688 -20.941406 9.953125 -21.171875 C 9.859375 -21.398438 9.882812 -21.664062 10.03125 -21.96875 L 13.203125 -28.109375 C 13.378906 -28.460938 13.601562 -28.6875 13.875 -28.78125 C 14.15625 -28.882812 14.441406 -28.90625 14.734375 -28.84375 C 15.023438 -28.78125 15.269531 -28.648438 15.46875 -28.453125 C 15.664062 -28.253906 15.785156 -28.015625 15.828125 -27.734375 C 15.867188 -27.453125 15.785156 -27.160156 15.578125 -26.859375 Z M 11.8125 -20.984375 "/></g></g></g><g fill="#000000" fill-opacity="1"><g transform="translate(369.06382, 473.785694)"><g/></g></g><g fill="#000000" fill-opacity="1"><g transform="translate(378.796146, 473.785694)"><g><path d="M 10.640625 0.34375 C 8.804688 0.34375 7.222656 -0.0546875 5.890625 -0.859375 C 4.554688 -1.671875 3.53125 -2.800781 2.8125 -4.25 C 2.09375 -5.695312 1.734375 -7.375 1.734375 -9.28125 C 1.734375 -10.738281 1.929688 -12.046875 2.328125 -13.203125 C 2.734375 -14.359375 3.328125 -15.34375 4.109375 -16.15625 C 4.890625 -16.976562 5.828125 -17.601562 6.921875 -18.03125 C 8.015625 -18.457031 9.253906 -18.671875 10.640625 -18.671875 C 11.546875 -18.671875 12.488281 -18.53125 13.46875 -18.25 C 14.445312 -17.976562 15.34375 -17.503906 16.15625 -16.828125 C 16.40625 -16.648438 16.566406 -16.4375 16.640625 -16.1875 C 16.710938 -15.9375 16.710938 -15.691406 16.640625 -15.453125 C 16.566406 -15.210938 16.441406 -15.007812 16.265625 -14.84375 C 16.085938 -14.6875 15.863281 -14.59375 15.59375 -14.5625 C 15.332031 -14.539062 15.066406 -14.628906 14.796875 -14.828125 C 14.140625 -15.328125 13.46875 -15.675781 12.78125 -15.875 C 12.101562 -16.082031 11.453125 -16.1875 10.828125 -16.1875 C 9.847656 -16.1875 8.992188 -16.03125 8.265625 -15.71875 C 7.535156 -15.40625 6.914062 -14.957031 6.40625 -14.375 C 5.90625 -13.800781 5.523438 -13.082031 5.265625 -12.21875 C 5.003906 -11.363281 4.875 -10.375 4.875 -9.25 C 4.875 -7.0625 5.390625 -5.332031 6.421875 -4.0625 C 7.453125 -2.789062 8.921875 -2.15625 10.828125 -2.15625 C 11.453125 -2.15625 12.097656 -2.253906 12.765625 -2.453125 C 13.429688 -2.648438 14.109375 -3.003906 14.796875 -3.515625 C 15.066406 -3.710938 15.328125 -3.796875 15.578125 -3.765625 C 15.835938 -3.742188 16.050781 -3.648438 16.21875 -3.484375 C 16.394531 -3.328125 16.515625 -3.117188 16.578125 -2.859375 C 16.640625 -2.609375 16.632812 -2.363281 16.5625 -2.125 C 16.488281 -1.894531 16.328125 -1.691406 16.078125 -1.515625 C 15.273438 -0.859375 14.394531 -0.382812 13.4375 -0.09375 C 12.476562 0.195312 11.546875 0.34375 10.640625 0.34375 Z M 10.640625 0.34375 "/></g></g></g><g fill="#000000" fill-opacity="1"><g transform="translate(396.26152, 473.785694)"><g><path d="M 11.125 0.34375 C 9.1875 0.34375 7.519531 -0.0390625 6.125 -0.8125 C 4.726562 -1.582031 3.644531 -2.671875 2.875 -4.078125 C 2.113281 -5.484375 1.734375 -7.164062 1.734375 -9.125 C 1.734375 -11.039062 2.109375 -12.707031 2.859375 -14.125 C 3.617188 -15.550781 4.660156 -16.664062 5.984375 -17.46875 C 7.304688 -18.269531 8.832031 -18.671875 10.5625 -18.671875 C 11.800781 -18.671875 12.910156 -18.460938 13.890625 -18.046875 C 14.867188 -17.640625 15.703125 -17.046875 16.390625 -16.265625 C 17.085938 -15.484375 17.617188 -14.535156 17.984375 -13.421875 C 18.347656 -12.316406 18.53125 -11.078125 18.53125 -9.703125 C 18.53125 -9.296875 18.414062 -9 18.1875 -8.8125 C 17.957031 -8.625 17.628906 -8.53125 17.203125 -8.53125 L 4.078125 -8.53125 L 4.078125 -10.53125 L 16.484375 -10.53125 L 15.890625 -10.03125 C 15.890625 -11.394531 15.6875 -12.546875 15.28125 -13.484375 C 14.875 -14.429688 14.285156 -15.15625 13.515625 -15.65625 C 12.753906 -16.164062 11.796875 -16.421875 10.640625 -16.421875 C 9.359375 -16.421875 8.269531 -16.125 7.375 -15.53125 C 6.476562 -14.9375 5.800781 -14.117188 5.34375 -13.078125 C 4.894531 -12.035156 4.671875 -10.820312 4.671875 -9.4375 L 4.671875 -9.203125 C 4.671875 -6.890625 5.226562 -5.128906 6.34375 -3.921875 C 7.46875 -2.710938 9.0625 -2.109375 11.125 -2.109375 C 11.988281 -2.109375 12.835938 -2.222656 13.671875 -2.453125 C 14.515625 -2.679688 15.34375 -3.054688 16.15625 -3.578125 C 16.5 -3.804688 16.816406 -3.914062 17.109375 -3.90625 C 17.398438 -3.894531 17.632812 -3.804688 17.8125 -3.640625 C 17.988281 -3.472656 18.109375 -3.269531 18.171875 -3.03125 C 18.234375 -2.789062 18.207031 -2.53125 18.09375 -2.25 C 17.976562 -1.976562 17.757812 -1.742188 17.4375 -1.546875 C 16.601562 -0.941406 15.617188 -0.472656 14.484375 -0.140625 C 13.359375 0.179688 12.238281 0.34375 11.125 0.34375 Z M 11.125 0.34375 "/></g></g></g><g fill="#000000" fill-opacity="1"><g transform="translate(416.329724, 473.785694)"><g><path d="M 4.375 0.265625 C 3.875 0.265625 3.5 0.128906 3.25 -0.140625 C 3 -0.421875 2.875 -0.816406 2.875 -1.328125 L 2.875 -17.0625 C 2.875 -17.5625 3 -17.941406 3.25 -18.203125 C 3.5 -18.472656 3.863281 -18.609375 4.34375 -18.609375 C 4.820312 -18.609375 5.191406 -18.472656 5.453125 -18.203125 C 5.710938 -17.941406 5.84375 -17.5625 5.84375 -17.0625 L 5.84375 -13.8125 L 5.4375 -14.265625 C 5.957031 -15.722656 6.816406 -16.820312 8.015625 -17.5625 C 9.210938 -18.300781 10.59375 -18.671875 12.15625 -18.671875 C 13.613281 -18.671875 14.828125 -18.40625 15.796875 -17.875 C 16.765625 -17.351562 17.484375 -16.554688 17.953125 -15.484375 C 18.429688 -14.421875 18.671875 -13.070312 18.671875 -11.4375 L 18.671875 -1.328125 C 18.671875 -0.816406 18.539062 -0.421875 18.28125 -0.140625 C 18.019531 0.128906 17.648438 0.265625 17.171875 0.265625 C 16.671875 0.265625 16.285156 0.128906 16.015625 -0.140625 C 15.753906 -0.421875 15.625 -0.816406 15.625 -1.328125 L 15.625 -11.25 C 15.625 -12.957031 15.289062 -14.207031 14.625 -15 C 13.957031 -15.789062 12.894531 -16.1875 11.4375 -16.1875 C 9.75 -16.1875 8.40625 -15.664062 7.40625 -14.625 C 6.414062 -13.582031 5.921875 -12.191406 5.921875 -10.453125 L 5.921875 -1.328125 C 5.921875 -0.265625 5.40625 0.265625 4.375 0.265625 Z M 4.375 0.265625 "/></g></g></g><g fill="#000000" fill-opacity="1"><g transform="translate(437.755921, 473.785694)"><g><path d="M 10.21875 0.34375 C 8.789062 0.34375 7.59375 0.0859375 6.625 -0.421875 C 5.65625 -0.941406 4.929688 -1.695312 4.453125 -2.6875 C 3.972656 -3.6875 3.734375 -4.90625 3.734375 -6.34375 L 3.734375 -15.96875 L 1.203125 -15.96875 C 0.773438 -15.96875 0.445312 -16.070312 0.21875 -16.28125 C 0 -16.5 -0.109375 -16.796875 -0.109375 -17.171875 C -0.109375 -17.546875 0 -17.832031 0.21875 -18.03125 C 0.445312 -18.238281 0.773438 -18.34375 1.203125 -18.34375 L 3.734375 -18.34375 L 3.734375 -22.671875 C 3.734375 -23.179688 3.867188 -23.566406 4.140625 -23.828125 C 4.421875 -24.085938 4.800781 -24.21875 5.28125 -24.21875 C 5.757812 -24.21875 6.128906 -24.085938 6.390625 -23.828125 C 6.660156 -23.566406 6.796875 -23.179688 6.796875 -22.671875 L 6.796875 -18.34375 L 11.546875 -18.34375 C 11.972656 -18.34375 12.300781 -18.238281 12.53125 -18.03125 C 12.757812 -17.832031 12.875 -17.546875 12.875 -17.171875 C 12.875 -16.796875 12.757812 -16.5 12.53125 -16.28125 C 12.300781 -16.070312 11.972656 -15.96875 11.546875 -15.96875 L 6.796875 -15.96875 L 6.796875 -6.640625 C 6.796875 -5.203125 7.097656 -4.113281 7.703125 -3.375 C 8.304688 -2.632812 9.285156 -2.265625 10.640625 -2.265625 C 11.117188 -2.265625 11.523438 -2.3125 11.859375 -2.40625 C 12.203125 -2.507812 12.488281 -2.5625 12.71875 -2.5625 C 12.945312 -2.59375 13.132812 -2.519531 13.28125 -2.34375 C 13.4375 -2.164062 13.515625 -1.863281 13.515625 -1.4375 C 13.515625 -1.132812 13.457031 -0.851562 13.34375 -0.59375 C 13.226562 -0.34375 13.03125 -0.171875 12.75 -0.078125 C 12.445312 0.0234375 12.050781 0.117188 11.5625 0.203125 C 11.070312 0.296875 10.625 0.34375 10.21875 0.34375 Z M 10.21875 0.34375 "/></g></g></g><g fill="#000000" fill-opacity="1"><g transform="translate(450.958695, 473.785694)"><g><path d="M 4.421875 0.265625 C 3.910156 0.265625 3.523438 0.128906 3.265625 -0.140625 C 3.003906 -0.421875 2.875 -0.816406 2.875 -1.328125 L 2.875 -17.0625 C 2.875 -17.5625 3 -17.941406 3.25 -18.203125 C 3.5 -18.472656 3.863281 -18.609375 4.34375 -18.609375 C 4.820312 -18.609375 5.191406 -18.472656 5.453125 -18.203125 C 5.710938 -17.941406 5.84375 -17.5625 5.84375 -17.0625 L 5.84375 -14 L 5.46875 -14 C 5.875 -15.476562 6.640625 -16.617188 7.765625 -17.421875 C 8.898438 -18.234375 10.300781 -18.664062 11.96875 -18.71875 C 12.34375 -18.738281 12.640625 -18.65625 12.859375 -18.46875 C 13.085938 -18.28125 13.21875 -17.960938 13.25 -17.515625 C 13.269531 -17.085938 13.164062 -16.742188 12.9375 -16.484375 C 12.71875 -16.234375 12.367188 -16.082031 11.890625 -16.03125 L 11.28125 -15.96875 C 9.570312 -15.8125 8.257812 -15.257812 7.34375 -14.3125 C 6.425781 -13.375 5.96875 -12.085938 5.96875 -10.453125 L 5.96875 -1.328125 C 5.96875 -0.816406 5.832031 -0.421875 5.5625 -0.140625 C 5.300781 0.128906 4.921875 0.265625 4.421875 0.265625 Z M 4.421875 0.265625 "/></g></g></g><g fill="#000000" fill-opacity="1"><g transform="translate(464.463246, 473.785694)"><g><path d="M 9.359375 0.34375 C 7.867188 0.34375 6.640625 0.0703125 5.671875 -0.46875 C 4.703125 -1.007812 3.972656 -1.820312 3.484375 -2.90625 C 2.992188 -3.988281 2.75 -5.332031 2.75 -6.9375 L 2.75 -17.0625 C 2.75 -17.582031 2.878906 -17.96875 3.140625 -18.21875 C 3.410156 -18.476562 3.785156 -18.609375 4.265625 -18.609375 C 4.765625 -18.609375 5.144531 -18.476562 5.40625 -18.21875 C 5.675781 -17.96875 5.8125 -17.582031 5.8125 -17.0625 L 5.8125 -6.984375 C 5.8125 -5.367188 6.144531 -4.164062 6.8125 -3.375 C 7.476562 -2.582031 8.53125 -2.1875 9.96875 -2.1875 C 11.519531 -2.1875 12.785156 -2.710938 13.765625 -3.765625 C 14.753906 -4.828125 15.25 -6.210938 15.25 -7.921875 L 15.25 -17.0625 C 15.25 -17.582031 15.378906 -17.96875 15.640625 -18.21875 C 15.898438 -18.476562 16.285156 -18.609375 16.796875 -18.609375 C 17.273438 -18.609375 17.644531 -18.476562 17.90625 -18.21875 C 18.164062 -17.96875 18.296875 -17.582031 18.296875 -17.0625 L 18.296875 -1.328125 C 18.296875 -0.265625 17.804688 0.265625 16.828125 0.265625 C 16.347656 0.265625 15.972656 0.128906 15.703125 -0.140625 C 15.441406 -0.421875 15.3125 -0.816406 15.3125 -1.328125 L 15.3125 -4.75 L 15.8125 -4.21875 C 15.3125 -2.738281 14.488281 -1.609375 13.34375 -0.828125 C 12.195312 -0.046875 10.867188 0.34375 9.359375 0.34375 Z M 9.359375 0.34375 "/></g></g></g><g fill="#000000" fill-opacity="1"><g transform="translate(485.6254, 473.785694)"><g><path d="M 4.453125 0.265625 C 3.953125 0.265625 3.570312 0.128906 3.3125 -0.140625 C 3.0625 -0.421875 2.9375 -0.816406 2.9375 -1.328125 L 2.9375 -17.0625 C 2.9375 -17.5625 3.0625 -17.941406 3.3125 -18.203125 C 3.570312 -18.472656 3.941406 -18.609375 4.421875 -18.609375 C 4.890625 -18.609375 5.253906 -18.472656 5.515625 -18.203125 C 5.785156 -17.941406 5.921875 -17.5625 5.921875 -17.0625 L 5.921875 -13.734375 L 5.515625 -14.265625 C 5.984375 -15.671875 6.753906 -16.753906 7.828125 -17.515625 C 8.898438 -18.285156 10.175781 -18.671875 11.65625 -18.671875 C 13.21875 -18.671875 14.484375 -18.300781 15.453125 -17.5625 C 16.421875 -16.820312 17.066406 -15.671875 17.390625 -14.109375 L 16.828125 -14.109375 C 17.285156 -15.515625 18.097656 -16.625 19.265625 -17.4375 C 20.429688 -18.257812 21.796875 -18.671875 23.359375 -18.671875 C 24.742188 -18.671875 25.878906 -18.40625 26.765625 -17.875 C 27.660156 -17.351562 28.332031 -16.554688 28.78125 -15.484375 C 29.238281 -14.421875 29.46875 -13.070312 29.46875 -11.4375 L 29.46875 -1.328125 C 29.46875 -0.816406 29.332031 -0.421875 29.0625 -0.140625 C 28.800781 0.128906 28.421875 0.265625 27.921875 0.265625 C 27.441406 0.265625 27.066406 0.128906 26.796875 -0.140625 C 26.535156 -0.421875 26.40625 -0.816406 26.40625 -1.328125 L 26.40625 -11.28125 C 26.40625 -12.96875 26.113281 -14.207031 25.53125 -15 C 24.957031 -15.789062 23.984375 -16.1875 22.609375 -16.1875 C 21.097656 -16.1875 19.90625 -15.664062 19.03125 -14.625 C 18.164062 -13.582031 17.734375 -12.164062 17.734375 -10.375 L 17.734375 -1.328125 C 17.734375 -0.816406 17.597656 -0.421875 17.328125 -0.140625 C 17.066406 0.128906 16.6875 0.265625 16.1875 0.265625 C 15.707031 0.265625 15.332031 0.128906 15.0625 -0.140625 C 14.800781 -0.421875 14.671875 -0.816406 14.671875 -1.328125 L 14.671875 -11.28125 C 14.671875 -12.96875 14.375 -14.207031 13.78125 -15 C 13.195312 -15.789062 12.226562 -16.1875 10.875 -16.1875 C 9.363281 -16.1875 8.171875 -15.664062 7.296875 -14.625 C 6.429688 -13.582031 6 -12.164062 6 -10.375 L 6 -1.328125 C 6 -0.265625 5.484375 0.265625 4.453125 0.265625 Z M 4.453125 0.265625 "/></g></g></g><g fill="#000000" fill-opacity="1"><g transform="translate(517.915584, 473.785694)"><g/></g></g><g fill="#000000" fill-opacity="1"><g transform="translate(527.64791, 473.785694)"><g><path d="M 4.75 0.265625 C 4.269531 0.265625 3.90625 0.132812 3.65625 -0.125 C 3.40625 -0.394531 3.28125 -0.78125 3.28125 -1.28125 L 3.28125 -25.28125 C 3.28125 -25.78125 3.40625 -26.164062 3.65625 -26.4375 C 3.90625 -26.71875 4.234375 -26.859375 4.640625 -26.859375 C 5.046875 -26.859375 5.34375 -26.789062 5.53125 -26.65625 C 5.71875 -26.519531 5.9375 -26.273438 6.1875 -25.921875 L 22.640625 -4 L 21.734375 -4 L 21.734375 -25.359375 C 21.734375 -25.835938 21.859375 -26.207031 22.109375 -26.46875 C 22.359375 -26.726562 22.722656 -26.859375 23.203125 -26.859375 C 23.660156 -26.859375 24.007812 -26.726562 24.25 -26.46875 C 24.488281 -26.207031 24.609375 -25.835938 24.609375 -25.359375 L 24.609375 -1.25 C 24.609375 -0.769531 24.5 -0.394531 24.28125 -0.125 C 24.070312 0.132812 23.765625 0.265625 23.359375 0.265625 C 22.984375 0.265625 22.679688 0.1875 22.453125 0.03125 C 22.222656 -0.113281 21.984375 -0.347656 21.734375 -0.671875 L 5.328125 -22.609375 L 6.1875 -22.609375 L 6.1875 -1.28125 C 6.1875 -0.78125 6.0625 -0.394531 5.8125 -0.125 C 5.5625 0.132812 5.207031 0.265625 4.75 0.265625 Z M 4.75 0.265625 "/></g></g></g><g fill="#000000" fill-opacity="1"><g transform="translate(555.562339, 473.785694)"><g><path d="M 6.9375 7.0625 C 6.5625 7.0625 6.257812 6.957031 6.03125 6.75 C 5.8125 6.550781 5.679688 6.28125 5.640625 5.9375 C 5.597656 5.601562 5.65625 5.257812 5.8125 4.90625 L 8.421875 -0.9375 L 8.421875 0.375 L 1.171875 -16.453125 C 1.015625 -16.828125 0.960938 -17.175781 1.015625 -17.5 C 1.066406 -17.832031 1.21875 -18.097656 1.46875 -18.296875 C 1.71875 -18.503906 2.070312 -18.609375 2.53125 -18.609375 C 2.925781 -18.609375 3.238281 -18.519531 3.46875 -18.34375 C 3.695312 -18.164062 3.898438 -17.847656 4.078125 -17.390625 L 10.265625 -2.21875 L 9.25 -2.21875 L 15.515625 -17.390625 C 15.710938 -17.847656 15.921875 -18.164062 16.140625 -18.34375 C 16.367188 -18.519531 16.695312 -18.609375 17.125 -18.609375 C 17.53125 -18.609375 17.835938 -18.503906 18.046875 -18.296875 C 18.265625 -18.097656 18.390625 -17.84375 18.421875 -17.53125 C 18.460938 -17.21875 18.410156 -16.867188 18.265625 -16.484375 L 8.609375 5.84375 C 8.398438 6.300781 8.175781 6.617188 7.9375 6.796875 C 7.695312 6.972656 7.363281 7.0625 6.9375 7.0625 Z M 6.9375 7.0625 "/></g></g></g><g fill="#000000" fill-opacity="1"><g transform="translate(574.951547, 473.785694)"><g><path d="M 4.453125 0.265625 C 3.953125 0.265625 3.570312 0.128906 3.3125 -0.140625 C 3.0625 -0.421875 2.9375 -0.816406 2.9375 -1.328125 L 2.9375 -17.0625 C 2.9375 -17.5625 3.0625 -17.941406 3.3125 -18.203125 C 3.570312 -18.472656 3.941406 -18.609375 4.421875 -18.609375 C 4.890625 -18.609375 5.253906 -18.472656 5.515625 -18.203125 C 5.785156 -17.941406 5.921875 -17.5625 5.921875 -17.0625 L 5.921875 -13.734375 L 5.515625 -14.265625 C 5.984375 -15.671875 6.753906 -16.753906 7.828125 -17.515625 C 8.898438 -18.285156 10.175781 -18.671875 11.65625 -18.671875 C 13.21875 -18.671875 14.484375 -18.300781 15.453125 -17.5625 C 16.421875 -16.820312 17.066406 -15.671875 17.390625 -14.109375 L 16.828125 -14.109375 C 17.285156 -15.515625 18.097656 -16.625 19.265625 -17.4375 C 20.429688 -18.257812 21.796875 -18.671875 23.359375 -18.671875 C 24.742188 -18.671875 25.878906 -18.40625 26.765625 -17.875 C 27.660156 -17.351562 28.332031 -16.554688 28.78125 -15.484375 C 29.238281 -14.421875 29.46875 -13.070312 29.46875 -11.4375 L 29.46875 -1.328125 C 29.46875 -0.816406 29.332031 -0.421875 29.0625 -0.140625 C 28.800781 0.128906 28.421875 0.265625 27.921875 0.265625 C 27.441406 0.265625 27.066406 0.128906 26.796875 -0.140625 C 26.535156 -0.421875 26.40625 -0.816406 26.40625 -1.328125 L 26.40625 -11.28125 C 26.40625 -12.96875 26.113281 -14.207031 25.53125 -15 C 24.957031 -15.789062 23.984375 -16.1875 22.609375 -16.1875 C 21.097656 -16.1875 19.90625 -15.664062 19.03125 -14.625 C 18.164062 -13.582031 17.734375 -12.164062 17.734375 -10.375 L 17.734375 -1.328125 C 17.734375 -0.816406 17.597656 -0.421875 17.328125 -0.140625 C 17.066406 0.128906 16.6875 0.265625 16.1875 0.265625 C 15.707031 0.265625 15.332031 0.128906 15.0625 -0.140625 C 14.800781 -0.421875 14.671875 -0.816406 14.671875 -1.328125 L 14.671875 -11.28125 C 14.671875 -12.96875 14.375 -14.207031 13.78125 -15 C 13.195312 -15.789062 12.226562 -16.1875 10.875 -16.1875 C 9.363281 -16.1875 8.171875 -15.664062 7.296875 -14.625 C 6.429688 -13.582031 6 -12.164062 6 -10.375 L 6 -1.328125 C 6 -0.265625 5.484375 0.265625 4.453125 0.265625 Z M 4.453125 0.265625 "/></g></g></g><g fill="#000000" fill-opacity="1"><g transform="translate(607.241731, 473.785694)"><g><path d="M 12.15625 0.34375 C 10.488281 0.34375 9.054688 -0.0820312 7.859375 -0.9375 C 6.671875 -1.789062 5.875 -2.9375 5.46875 -4.375 L 5.890625 -4.796875 L 5.890625 -1.328125 C 5.890625 -0.816406 5.753906 -0.421875 5.484375 -0.140625 C 5.222656 0.128906 4.851562 0.265625 4.375 0.265625 C 3.875 0.265625 3.5 0.128906 3.25 -0.140625 C 3 -0.421875 2.875 -0.816406 2.875 -1.328125 L 2.875 -25.3125 C 2.875 -25.820312 3 -26.207031 3.25 -26.46875 C 3.5 -26.726562 3.875 -26.859375 4.375 -26.859375 C 4.851562 -26.859375 5.226562 -26.726562 5.5 -26.46875 C 5.78125 -26.207031 5.921875 -25.820312 5.921875 -25.3125 L 5.921875 -14.078125 L 5.46875 -14.078125 C 5.894531 -15.484375 6.695312 -16.597656 7.875 -17.421875 C 9.0625 -18.253906 10.488281 -18.671875 12.15625 -18.671875 C 13.8125 -18.671875 15.242188 -18.285156 16.453125 -17.515625 C 17.660156 -16.753906 18.597656 -15.660156 19.265625 -14.234375 C 19.929688 -12.816406 20.265625 -11.128906 20.265625 -9.171875 C 20.265625 -7.234375 19.929688 -5.550781 19.265625 -4.125 C 18.597656 -2.707031 17.65625 -1.609375 16.4375 -0.828125 C 15.21875 -0.046875 13.789062 0.34375 12.15625 0.34375 Z M 11.515625 -2.109375 C 12.671875 -2.109375 13.664062 -2.382812 14.5 -2.9375 C 15.34375 -3.488281 16 -4.289062 16.46875 -5.34375 C 16.9375 -6.40625 17.171875 -7.679688 17.171875 -9.171875 C 17.171875 -11.460938 16.660156 -13.207031 15.640625 -14.40625 C 14.617188 -15.613281 13.242188 -16.21875 11.515625 -16.21875 C 10.378906 -16.21875 9.382812 -15.945312 8.53125 -15.40625 C 7.675781 -14.875 7.015625 -14.082031 6.546875 -13.03125 C 6.078125 -11.988281 5.84375 -10.703125 5.84375 -9.171875 C 5.84375 -6.898438 6.359375 -5.15625 7.390625 -3.9375 C 8.421875 -2.71875 9.796875 -2.109375 11.515625 -2.109375 Z M 11.515625 -2.109375 "/></g></g></g><g fill="#000000" fill-opacity="1"><g transform="translate(629.233747, 473.785694)"><g><path d="M 9.359375 0.34375 C 7.867188 0.34375 6.640625 0.0703125 5.671875 -0.46875 C 4.703125 -1.007812 3.972656 -1.820312 3.484375 -2.90625 C 2.992188 -3.988281 2.75 -5.332031 2.75 -6.9375 L 2.75 -17.0625 C 2.75 -17.582031 2.878906 -17.96875 3.140625 -18.21875 C 3.410156 -18.476562 3.785156 -18.609375 4.265625 -18.609375 C 4.765625 -18.609375 5.144531 -18.476562 5.40625 -18.21875 C 5.675781 -17.96875 5.8125 -17.582031 5.8125 -17.0625 L 5.8125 -6.984375 C 5.8125 -5.367188 6.144531 -4.164062 6.8125 -3.375 C 7.476562 -2.582031 8.53125 -2.1875 9.96875 -2.1875 C 11.519531 -2.1875 12.785156 -2.710938 13.765625 -3.765625 C 14.753906 -4.828125 15.25 -6.210938 15.25 -7.921875 L 15.25 -17.0625 C 15.25 -17.582031 15.378906 -17.96875 15.640625 -18.21875 C 15.898438 -18.476562 16.285156 -18.609375 16.796875 -18.609375 C 17.273438 -18.609375 17.644531 -18.476562 17.90625 -18.21875 C 18.164062 -17.96875 18.296875 -17.582031 18.296875 -17.0625 L 18.296875 -1.328125 C 18.296875 -0.265625 17.804688 0.265625 16.828125 0.265625 C 16.347656 0.265625 15.972656 0.128906 15.703125 -0.140625 C 15.441406 -0.421875 15.3125 -0.816406 15.3125 -1.328125 L 15.3125 -4.75 L 15.8125 -4.21875 C 15.3125 -2.738281 14.488281 -1.609375 13.34375 -0.828125 C 12.195312 -0.046875 10.867188 0.34375 9.359375 0.34375 Z M 9.359375 0.34375 "/></g></g></g><g fill="#000000" fill-opacity="1"><g transform="translate(650.3959, 473.785694)"><g><path d="M 4.421875 0.265625 C 3.910156 0.265625 3.523438 0.128906 3.265625 -0.140625 C 3.003906 -0.421875 2.875 -0.816406 2.875 -1.328125 L 2.875 -17.0625 C 2.875 -17.5625 3 -17.941406 3.25 -18.203125 C 3.5 -18.472656 3.863281 -18.609375 4.34375 -18.609375 C 4.820312 -18.609375 5.191406 -18.472656 5.453125 -18.203125 C 5.710938 -17.941406 5.84375 -17.5625 5.84375 -17.0625 L 5.84375 -14 L 5.46875 -14 C 5.875 -15.476562 6.640625 -16.617188 7.765625 -17.421875 C 8.898438 -18.234375 10.300781 -18.664062 11.96875 -18.71875 C 12.34375 -18.738281 12.640625 -18.65625 12.859375 -18.46875 C 13.085938 -18.28125 13.21875 -17.960938 13.25 -17.515625 C 13.269531 -17.085938 13.164062 -16.742188 12.9375 -16.484375 C 12.71875 -16.234375 12.367188 -16.082031 11.890625 -16.03125 L 11.28125 -15.96875 C 9.570312 -15.8125 8.257812 -15.257812 7.34375 -14.3125 C 6.425781 -13.375 5.96875 -12.085938 5.96875 -10.453125 L 5.96875 -1.328125 C 5.96875 -0.816406 5.832031 -0.421875 5.5625 -0.140625 C 5.300781 0.128906 4.921875 0.265625 4.421875 0.265625 Z M 4.421875 0.265625 "/></g></g></g><g fill="#000000" fill-opacity="1"><g transform="translate(663.900451, 473.785694)"><g><path d="M 4.375 0.265625 C 3.875 0.265625 3.5 0.128906 3.25 -0.140625 C 3 -0.421875 2.875 -0.816406 2.875 -1.328125 L 2.875 -25.3125 C 2.875 -25.820312 3 -26.207031 3.25 -26.46875 C 3.5 -26.726562 3.875 -26.859375 4.375 -26.859375 C 4.851562 -26.859375 5.226562 -26.726562 5.5 -26.46875 C 5.78125 -26.207031 5.921875 -25.820312 5.921875 -25.3125 L 5.921875 -10.1875 L 6 -10.1875 L 13.734375 -17.578125 C 14.085938 -17.910156 14.394531 -18.164062 14.65625 -18.34375 C 14.925781 -18.519531 15.285156 -18.609375 15.734375 -18.609375 C 16.140625 -18.609375 16.453125 -18.5 16.671875 -18.28125 C 16.898438 -18.070312 17.007812 -17.804688 17 -17.484375 C 16.988281 -17.171875 16.832031 -16.835938 16.53125 -16.484375 L 8.296875 -8.671875 L 8.296875 -10.34375 L 17.25 -1.921875 C 17.59375 -1.566406 17.765625 -1.226562 17.765625 -0.90625 C 17.765625 -0.582031 17.644531 -0.304688 17.40625 -0.078125 C 17.175781 0.148438 16.867188 0.265625 16.484375 0.265625 C 16.035156 0.265625 15.671875 0.171875 15.390625 -0.015625 C 15.117188 -0.203125 14.78125 -0.488281 14.375 -0.875 L 6 -8.609375 L 5.921875 -8.609375 L 5.921875 -1.328125 C 5.921875 -0.265625 5.40625 0.265625 4.375 0.265625 Z M 4.375 0.265625 "/></g></g></g></svg>